<svg version="1.1" id="Слой_1" xmlns="http://www.w3.org/2000/svg" xmlns:xlink="http://www.w3.org/1999/xlink" x="0px" y="0px"
	 width="62px" height="28px" viewBox="0 0 502.415 221.584" style="enable-background:new 0 0 502.415 221.584;"
	 xml:space="preserve">
<style type="text/css">
	.st0{
	fill-rule:evenodd;
	clip-rule:evenodd;
	fill:none;
	stroke:#fff;
	stroke-width:4.252;
	stroke-miterlimit:22.9256;
	}
</style>
<g>
	<circle class="st0" cx="103.451" cy="179.22" r="40.238"/>
	<circle class="st0" cx="404.89" cy="179.22" r="40.238"/>
	<path class="st0" d="M2.126,186.028h31.805c14.312-91.951,129.297-91.951,136.206,0h164.829c9.87-91.951,128.31-96.232,133.245,0
		h32.077v-26.649l-9.376-9.376v-57.74L439.588,73.51c-48.363-106.596-253.659-83.036-307.451,0
		C73.387,72.424,27.022,87.328,19.126,114.471v40.961l-17,5.922V186.028z"/>
	<line class="st0" x1="278.707" y1="73.51" x2="278.707" y2="2.761"/>
	<line class="st0" x1="381.355" y1="73.51" x2="381.355" y2="18.024"/>
	<line class="st0" x1="439.588" y1="73.51" x2="132.138" y2="73.51"/>
	<line class="st0" x1="46.762" y1="115.458" x2="19.126" y2="115.458"/>
	<line class="st0" x1="458.341" y1="107.927" x2="490.912" y2="107.927"/>
	<line class="st0" x1="163.992" y1="158.482" x2="218.171" y2="102.133"/>
	<line class="st0" x1="198.925" y1="152.933" x2="253.104" y2="96.584"/>
	<line class="st0" x1="256.335" y1="158.482" x2="323.066" y2="89.248"/>
	<line class="st0" x1="313.64" y1="129.859" x2="367.819" y2="73.51"/>
	<line class="st0" x1="197.614" y1="187.015" x2="274.271" y2="106.859"/>
</g>
</svg>
