<svg version="1.1" id="Слой_1" xmlns="http://www.w3.org/2000/svg" xmlns:xlink="http://www.w3.org/1999/xlink" x="0px" y="0px"
	 width="43px" height="49px" viewBox="0 0 360.429 407.498" style="enable-background:new 0 0 360.429 407.498;"
	 xml:space="preserve">
<style type="text/css">
	.st0{
	stroke:#fff;
	stroke-width:4.252;
	stroke-miterlimit:10;
	}
	.st1{
	fill-rule:evenodd;
	clip-rule:evenodd;
	fill:none;
	stroke:#fff;
	stroke-width:4.252;stroke-miterlimit:22.9256;}
</style>
<g>
	<rect id="XMLID_205_" x="175.719" y="354.661" class="st0" width="0" height="48.917"/>
	<rect id="XMLID_204_" y="405.372" class="st0" width="246.545" height="0"/>
	<rect id="XMLID_203_" x="286.341" y="405.372" class="st0" width="74.088" height="0"/>
	<rect id="XMLID_202_" x="63.653" y="280.005" class="st0" width="0" height="127.016"/>
	<path id="XMLID_200_" class="st0" d="M255.773,1.558L54.378,188.574l-4.355,4.044L250.285,6.654
		C251.901,5.153,253.78,3.409,255.773,1.558z"/>
	<rect id="XMLID_199_" x="50.722" y="191.073" class="st0" width="0" height="82.016"/>
	<polygon id="XMLID_198_" class="st0" points="335.358,85.933 338.375,89.018 256.614,5.418 253.597,2.333 	"/>
	<polygon id="XMLID_197_" class="st0" points="190.076,366.792 191.614,363.879 338.087,86.536 336.549,89.448 	"/>
	<polygon id="XMLID_196_" class="st0" points="192.438,366.062 189.691,364.238 49.804,271.358 52.55,273.181 	"/>
	
		<rect x="190.979" y="366.804" transform="matrix(0.5732 -0.8194 0.8194 0.5732 -219.2749 313.7219)" width="1.113" height="1.121"/>
	<line class="st1" x1="103.252" y1="221.923" x2="189.603" y2="221.923"/>
	<line class="st1" x1="103.252" y1="262.043" x2="189.603" y2="262.043"/>
	<line class="st1" x1="103.252" y1="241.983" x2="166.489" y2="241.983"/>
	<line class="st1" x1="178.322" y1="241.983" x2="190.533" y2="241.983"/>
	<path class="st1" d="M230.002,104.415l5.583,11.312c1.25,2.533,3.667,4.289,6.463,4.696l12.484,1.814
		c7.041,1.023,9.852,9.675,4.757,14.641l-9.033,8.805c-2.023,1.972-2.946,4.813-2.469,7.598l2.132,12.433
		c1.203,7.012-6.157,12.36-12.455,9.049l-11.166-5.87c-2.501-1.315-5.488-1.315-7.989,0l-11.166,5.87
		c-6.297,3.311-13.657-2.037-12.455-9.049l2.132-12.433c0.478-2.785-0.446-5.626-2.469-7.598l-9.033-8.805
		c-5.095-4.966-2.283-13.618,4.757-14.641l12.483-1.814c2.796-0.406,5.213-2.162,6.463-4.696l5.583-11.312
		C217.756,98.035,226.854,98.035,230.002,104.415z"/>
</g>
</svg>
