<svg version="1.1" id="Слой_1" xmlns="http://www.w3.org/2000/svg" xmlns:xlink="http://www.w3.org/1999/xlink" x="0px" y="0px"
	 width="42px" height="32px" viewBox="0 0 252.46 340.641" style="enable-background:new 0 0 252.46 340.641;"
	 xml:space="preserve">
<style type="text/css">
	.st0{fill-rule:evenodd;clip-rule:evenodd;fill:none;stroke:#fff;stroke-width:4.252;stroke-miterlimit:22.9256;}
	
		.st1{fill-rule:evenodd;clip-rule:evenodd;fill:none;stroke:#fff;stroke-width:4.252;stroke-linecap:round;stroke-linejoin:round;stroke-miterlimit:22.9256;}
</style>
<g id="XMLID_483_">
	<polyline id="XMLID_494_" class="st0" points="250.334,56.414 250.334,338.515 2.126,338.515 2.126,2.126 190.648,2.126 	"/>
	<polygon id="XMLID_493_" class="st1" points="250.334,56.414 191.522,56.414 191.522,2.126 	"/>
	<rect id="XMLID_492_" x="40.772" y="112.543" class="st0" width="166.546" height="0"/>
	<rect id="XMLID_491_" x="40.772" y="154.383" class="st0" width="104.283" height="0"/>
	<rect id="XMLID_490_" x="170.819" y="154.383" class="st0" width="36.499" height="0"/>
	<rect id="XMLID_489_" x="40.772" y="197.81" class="st0" width="124.526" height="0"/>
	<circle id="XMLID_488_" class="st0" cx="181.285" cy="276.29" r="36.154"/>
	
		<rect id="XMLID_487_" x="161.328" y="267.81" transform="matrix(0.929 -0.37 0.37 0.929 -86.5237 84.5096)" class="st0" width="31.431" height="0"/>
	
		<rect id="XMLID_486_" x="165.051" y="277.16" transform="matrix(0.929 -0.37 0.37 0.929 -89.7186 86.5507)" class="st0" width="31.431" height="0"/>
	
		<rect id="XMLID_485_" x="168.775" y="286.509" transform="matrix(0.929 -0.37 0.37 0.929 -92.9135 88.5918)" class="st0" width="31.431" height="0"/>
</g>
</svg>
