<svg version="1.1" id="Слой_1" xmlns="http://www.w3.org/2000/svg" xmlns:xlink="http://www.w3.org/1999/xlink" x="0px" y="0px"
	 width="44px" height="48px" viewBox="0 0 367.8 394.262" style="enable-background:new 0 0 367.8 394.262;"
	 xml:space="preserve">
<style type="text/css">
	.st0{fill:none;stroke:#fff;stroke-width:4.252;stroke-miterlimit:10;}
	.st1{stroke:#fff;stroke-width:4.252;stroke-miterlimit:10;}
	.st2{fill:none;stroke:#fff;stroke-width:4.52;stroke-miterlimit:10;}
</style>
<g>
	<rect id="XMLID_500_" x="55.809" y="2.126" class="st0" width="256.855" height="334.491"/>
	<rect id="XMLID_499_" x="0" y="392.136" class="st0" width="266.941" height="0"/>
	<rect id="XMLID_498_" x="297.199" y="392.136" class="st0" width="70.602" height="0"/>
	<rect id="XMLID_497_" x="150.392" y="336.617" class="st1" width="0" height="52.829"/>
	<rect id="XMLID_496_" x="217.184" y="336.617" class="st0" width="0" height="52.829"/>
	<rect id="XMLID_495_" x="70.601" y="18.217" class="st0" width="226.597" height="302.556"/>
	<g>
		<path id="XMLID_494_" class="st2" d="M207.025,107.566l22.958,48.222c4.571,9.6,2.772,20.003-4.017,23.235l-58.688,27.941
			c-6.789,3.232-15.998-1.93-20.569-11.53l-22.958-48.222"/>
		<polygon id="XMLID_493_" class="st1" points="209.477,107.593 122.141,148.931 122.13,148.936 209.466,107.598 		"/>
		<polygon id="XMLID_492_" class="st1" points="158.444,174.831 158.449,174.842 142.634,141.429 142.629,141.418 		"/>
		<polygon id="XMLID_491_" class="st1" points="174.537,165.881 174.542,165.892 158.728,132.48 158.722,132.469 		"/>
		<polygon id="XMLID_490_" class="st1" points="189.889,158.572 189.895,158.583 174.08,125.171 174.075,125.16 		"/>
		<polygon id="XMLID_489_" class="st1" points="206.017,150.894 206.022,150.905 190.207,117.493 190.202,117.482 		"/>
		<polygon id="XMLID_488_" class="st1" points="230.631,157.135 147.268,196.592 147.257,196.598 230.62,157.14 		"/>
		
			<rect id="XMLID_487_" x="202.705" y="189.466" transform="matrix(0.9029 -0.4299 0.4299 0.9029 -76.4498 113.158)" class="st2" width="19.064" height="72.651"/>
		<polygon id="XMLID_486_" class="st1" points="127.22,132.439 127.225,132.45 121.273,119.876 121.268,119.865 		"/>
		<polygon id="XMLID_485_" class="st1" points="193.746,100.767 193.751,100.778 187.8,88.203 187.794,88.192 		"/>
		<polygon id="XMLID_484_" class="st1" points="143.965,124.467 143.97,124.478 136.695,109.11 136.69,109.099 		"/>
		<polygon id="XMLID_483_" class="st1" points="175.91,109.258 175.915,109.269 168.64,93.901 168.635,93.89 		"/>
		<polygon id="XMLID_482_" class="st1" points="160.273,116.703 160.278,116.714 150.652,96.378 150.647,96.367 		"/>
	</g>
</g>
</svg>
