<?xml version="1.0" encoding="utf-8"?>
<!-- Generator: Adobe Illustrator 19.0.0, SVG Export Plug-In . SVG Version: 6.00 Build 0)  -->
<svg version="1.1" id="Слой_1" xmlns="http://www.w3.org/2000/svg" xmlns:xlink="http://www.w3.org/1999/xlink" x="0px" y="0px"
	 width="135px" height="140px" viewBox="0 0 334.807 352.54" style="enable-background:new 0 0 334.807 352.54;"
	 xml:space="preserve">
<style type="text/css">
	.st0{fill-rule:evenodd;clip-rule:evenodd;fill:none;stroke:#d81621;stroke-width:4.252;stroke-miterlimit:22.9256;}
</style>
<g>
	<line class="st0" x1="0" y1="350.414" x2="242.899" y2="350.414"/>
	<line class="st0" x1="261.187" y1="350.414" x2="334.807" y2="350.414"/>
	<line class="st0" x1="130.828" y1="305.867" x2="130.828" y2="350.414"/>
	<line class="st0" x1="198.821" y1="305.867" x2="198.821" y2="350.414"/>
	<rect x="51.346" y="2.126" class="st0" width="214.764" height="303.389"/>
	<rect x="73.854" y="23.462" class="st0" width="169.748" height="260.718"/>
	<path class="st0" d="M124.966,126.037"/>
	<g>
		<line class="st0" x1="112.54" y1="200.83" x2="205.386" y2="200.83"/>
		<line class="st0" x1="112.54" y1="249.597" x2="205.386" y2="249.597"/>
		<line class="st0" x1="112.54" y1="225.213" x2="180.533" y2="225.213"/>
		<line class="st0" x1="192.256" y1="225.213" x2="205.386" y2="225.213"/>
		<path class="st0" d="M169.237,65.631l7.111,14.409c1.593,3.227,4.671,5.464,8.233,5.981l15.902,2.311
			c8.968,1.303,12.549,12.325,6.06,18.65l-11.507,11.216c-2.577,2.512-3.753,6.131-3.145,9.678l2.716,15.837
			c1.532,8.932-7.843,15.744-15.865,11.527l-14.223-7.477c-3.186-1.675-6.991-1.675-10.176,0l-14.223,7.477
			c-8.022,4.217-17.397-2.594-15.865-11.527l2.716-15.837c0.608-3.547-0.568-7.166-3.145-9.678l-11.507-11.216
			c-6.49-6.326-2.909-17.347,6.06-18.65l15.902-2.311c3.561-0.518,6.64-2.754,8.233-5.981l7.111-14.409
			C153.637,57.505,165.226,57.505,169.237,65.631z"/>
	</g>
</g>
</svg>
