<svg version="1.1" id="Слой_1" xmlns="http://www.w3.org/2000/svg" xmlns:xlink="http://www.w3.org/1999/xlink" x="0px" y="0px"
	 width="180px" height="120px" viewBox="0 0 450.725 301.411" style="enable-background:new 0 0 450.725 301.411;"
	 xml:space="preserve" class="icon">
<style type="text/css">
	.st0 {

	fill-rule:evenodd;
	clip-rule:evenodd;
	fill:none;
	stroke:#d81621;
	stroke-width:4.252;
	stroke-miterlimit:22.9256;
	}
	path {
		fill:#d81621;
	}
</style>

<g class="group">
	<line class="st0" x1="425.932" y1="13.459" x2="24.793" y2="13.459"/>
	<line class="st0" x1="113.857" y1="13.459" x2="113.857" y2="73.365"/>
	<line class="st0" x1="347.219" y1="13.459" x2="347.219" y2="73.365"/>
	<rect x="51.404" y="73.076" class="st0" width="347.917" height="226.209"/>
	<g class="portfolio-simvol">
		<path d="M114.712,169.983h3.702l8.609,25.096l8.265-25.182h2.798l8.265,25.182l8.609-25.096h3.573l-10.761,30.347h-2.884
			l-8.265-24.449l-8.308,24.449h-2.841L114.712,169.983z"/>
		<path d="M164.683,169.983h21.781v3.1h-18.38v10.288h16.443v3.099h-16.443v10.546h18.595v3.1h-21.996V169.983z"/>
		<path d="M193.52,169.983h3.401v26.989h16.959v3.143h-20.36V169.983z"/>
		<path d="M217.106,185.049c0-8.523,6.371-15.583,15.238-15.583c5.467,0,8.652,2.023,11.665,4.864l-2.238,2.411
			c-2.54-2.411-5.38-4.133-9.47-4.133c-6.672,0-11.666,5.424-11.666,12.44c0,6.973,5.037,12.439,11.666,12.439
			c4.132,0,6.844-1.593,9.728-4.348l2.238,2.368c-3.142,3.185-6.586,5.122-12.053,5.122
			C223.52,200.631,217.106,193.787,217.106,185.049z"/>
		<path d="M248.01,185.049c0-8.308,6.241-15.583,15.41-15.583c9.168,0,15.324,7.188,15.324,15.583
			c0,8.308-6.241,15.582-15.41,15.582C254.165,200.631,248.01,193.443,248.01,185.049z M275.214,185.049
			c0-6.845-4.993-12.44-11.88-12.44s-11.794,5.51-11.794,12.44c0,6.844,4.994,12.439,11.881,12.439S275.214,191.979,275.214,185.049
			z"/>
		<path d="M285.928,169.983h3.444l10.977,16.443l10.977-16.443h3.443v30.132h-3.4v-24.406l-10.977,16.142h-0.172l-10.976-16.099
			v24.363h-3.315V169.983z"/>
		<path d="M323.288,169.983h21.781v3.1h-18.38v10.288h16.443v3.099h-16.443v10.546h18.595v3.1h-21.996V169.983z"/>
	</g>

	<circle class="st0" cx="13.459" cy="13.459" r="11.333"/>
	<circle class="st0" cx="437.266" cy="13.459" r="11.333"/>
</g>

</svg>

