<svg version="1.1" id="Слой_1" xmlns="http://www.w3.org/2000/svg" xmlns:xlink="http://www.w3.org/1999/xlink" x="0px" y="0px"
	 width="195px" height="95px" viewBox="0 0 486.769 237.633" style="enable-background:new 0 0 486.769 237.633;"
	 xml:space="preserve">
<style type="text/css">
	.st0{
	fill-rule:evenodd;
	clip-rule:evenodd;
	fill:none;
	stroke:#d81621;
	stroke-width:4.252;
	stroke-miterlimit:22.9256;
	}
	path{
	fill:#d81621;
	}
</style>
<g>
	<g class="portfolio-simvol">
		<path d="M326.512,31.124h2.159v8.499h11.041v-8.499h2.159v19.13h-2.159v-8.608h-11.041v8.608h-2.159V31.124z"/>
		<path d="M347.288,31.124h13.829v1.968h-11.67v6.531h10.439v1.968h-10.439v6.695h11.806v1.968h-13.965V31.124z"/>
		<path d="M365.603,31.124h2.159v17.135h10.768v1.995h-12.927V31.124z"/>
		<path d="M382.524,31.124h2.159v17.135h10.768v1.995h-12.927V31.124z"/>
		<path d="M397.505,40.688c0-5.274,3.963-9.893,9.783-9.893c5.821,0,9.729,4.564,9.729,9.893c0,5.274-3.963,9.894-9.784,9.894
			C401.414,50.582,397.505,46.017,397.505,40.688z M414.777,40.688c0-4.345-3.17-7.897-7.543-7.897
			c-4.372,0-7.487,3.498-7.487,7.897c0,4.346,3.17,7.898,7.542,7.898C411.662,48.586,414.777,45.088,414.777,40.688z"/>
	</g>
	<line class="st0" x1="338.939" y1="78.308" x2="338.939" y2="122.855"/>
	<line class="st0" x1="406.931" y1="78.308" x2="406.931" y2="122.855"/>
	<rect x="270.711" y="2.126" class="st0" width="203.51" height="77.83"/>
	<polyline class="st0" points="150.814,184.852 150.814,233.444 40.225,233.444 40.225,108.613 	"/>
	<polyline class="st0" points="0.849,122.855 150.814,57.507 289.888,122.855 486.769,122.855 	"/>
	<polyline class="st0" points="185.163,233.444 340.993,233.444 340.993,193.23 446.555,193.23 446.555,237.633 	"/>
	<line class="st0" x1="446.555" y1="157.205" x2="446.555" y2="122.855"/>
	<line class="st0" x1="78.689" y1="47.798" x2="78.689" y2="90.181"/>
</g>
</svg>
