<svg version="1.1" id="Слой_1" xmlns="http://www.w3.org/2000/svg" xmlns:xlink="http://www.w3.org/1999/xlink" x="0px" y="0px"
	 width="166px" height="128px" viewBox="0 0 414.454 321.716" style="enable-background:new 0 0 414.454 321.716;"
	 xml:space="preserve">
<style type="text/css">
	.st0{
	fill-rule:evenodd;
	clip-rule:evenodd;
	fill:none;
	stroke:#d81621;
	stroke-width:4.252;
	stroke-miterlimit:22.9256;
	}
	path{
	fill:#d81621;
	}
</style>
<g>
	<line class="st0" x1="30.571" y1="320.761" x2="30.571" y2="0"/>
	<line class="st0" x1="328.665" y1="44.677" x2="30.571" y2="44.677"/>
	<line class="st0" x1="0" y1="319.59" x2="61.77" y2="319.59"/>
	<line class="st0" x1="107.924" y1="44.677" x2="107.924" y2="86.813"/>
	<line class="st0" x1="272.065" y1="44.677" x2="272.065" y2="86.813"/>
	<path class="st0" d="M333.704,176.281h62.075c9.102,0,16.549,7.447,16.549,16.549v108.912c0,9.102-7.447,16.549-16.549,16.549
		H243.093c-9.102,0-16.549-7.447-16.549-16.549v-36.57"/>
	<line class="st0" x1="401.911" y1="151.941" x2="334.343" y2="151.941"/>
	<line class="st0" x1="359.748" y1="151.941" x2="359.748" y2="175.257"/>
	<rect x="68.565" y="86.61" class="st0" width="244.717" height="159.11"/>
	<g class="portfolio-simvol">
		<path d="M135.128,146.628c0-6.108,4.486-11.518,11.167-11.518c3.754,0,6.077,1.082,8.304,2.959l-1.623,1.909
			c-1.718-1.495-3.627-2.545-6.776-2.545c-4.931,0-8.463,4.167-8.463,9.194c0,5.313,3.404,9.258,8.813,9.258
			c2.545,0,4.899-0.986,6.426-2.228v-5.535h-6.776v-2.259h9.194v8.876c-2.068,1.846-5.186,3.404-8.94,3.404
			C139.455,158.144,135.128,153.053,135.128,146.628z"/>
		<path d="M160.074,146.628c0-6.141,4.613-11.518,11.39-11.518c6.776,0,11.326,5.313,11.326,11.518
			c0,6.14-4.613,11.517-11.39,11.517C164.623,158.144,160.074,152.831,160.074,146.628z M180.181,146.628
			c0-5.059-3.69-9.194-8.781-9.194s-8.717,4.072-8.717,9.194c0,5.059,3.691,9.194,8.781,9.194S180.181,151.75,180.181,146.628z"/>
		<path d="M187.12,146.628c0-6.141,4.613-11.518,11.39-11.518c6.776,0,11.326,5.313,11.326,11.518c0,6.14-4.613,11.517-11.39,11.517
			C191.669,158.144,187.12,152.831,187.12,146.628z M207.226,146.628c0-5.059-3.69-9.194-8.781-9.194s-8.717,4.072-8.717,9.194
			c0,5.059,3.691,9.194,8.781,9.194S207.226,151.75,207.226,146.628z"/>
		<path d="M215.152,135.492h7.731c7,0,11.835,4.805,11.835,11.136c0,6.268-4.836,11.135-11.835,11.135h-7.731V135.492z
			 M222.883,155.44c5.631,0,9.227-3.818,9.227-8.813c0-4.932-3.595-8.813-9.227-8.813h-5.217v17.625H222.883z"/>
		<path d="M154.155,175.492h7.731c7,0,11.835,4.805,11.835,11.136c0,6.268-4.836,11.135-11.835,11.135h-7.731V175.492z
			 M161.886,195.44c5.631,0,9.227-3.818,9.227-8.813c0-4.932-3.595-8.813-9.227-8.813h-5.217v17.625H161.886z"/>
		<path d="M185.814,175.333h2.354l10.148,22.43h-2.704l-2.609-5.886h-12.121l-2.641,5.886h-2.577L185.814,175.333z M192.018,189.618
			l-5.058-11.357l-5.09,11.357H192.018z"/>
		<path d="M206.18,188.95l-9.258-13.458h3.054l7.508,11.136l7.572-11.136h2.927l-9.258,13.426v8.845h-2.545V188.95z"/>
	</g>
</g>
</svg>
