<svg version="1.1" id="Слой_1" xmlns="http://www.w3.org/2000/svg" xmlns:xlink="http://www.w3.org/1999/xlink" x="0px" y="0px"
	 width="102px" height="137px" viewBox="-706 220.718 252.46 340.641"
	 style="enable-background:new -706 220.718 252.46 340.641;" xml:space="preserve">
<style type="text/css">
	.st0{fill:none;stroke:#d81621;stroke-width:4.252;stroke-miterlimit:22.9256;}
	.st1{fill:none;stroke:#d81621;stroke-width:4.252;stroke-linecap:round;stroke-linejoin:round;stroke-miterlimit:22.9256;}
</style>
<g>
	<polyline id="XMLID_14_" class="st0" points="-455.666,277.132 -455.666,559.233 -703.874,559.233 -703.874,222.844 
		-515.352,222.844 	"/>
	<polygon id="XMLID_13_" class="st1" points="-455.666,277.132 -514.478,277.132 -514.478,222.844 	"/>
	<g>
		<polygon id="XMLID_12_" class="st0" points="-665.228,333.261 -498.682,333.261 -498.682,333.261 		"/>
		<polygon id="XMLID_11_" class="st0" points="-665.228,375.101 -560.945,375.101 -560.945,375.101 		"/>
		<polygon id="XMLID_10_" class="st0" points="-535.181,375.101 -498.682,375.101 -498.682,375.101 		"/>
		<polygon id="XMLID_9_" class="st0" points="-665.228,418.528 -540.702,418.528 -540.702,418.528 		"/>
	</g>
	<g>
		<circle id="XMLID_8_" class="st0" cx="-524.715" cy="497.008" r="36.154"/>
		<g>
			<polygon id="XMLID_7_" class="st0" points="-543.56,494.332 -514.361,482.702 -514.361,482.702 			"/>
			<polygon id="XMLID_6_" class="st0" points="-539.837,503.681 -510.638,492.052 -510.638,492.052 			"/>
			<polygon id="XMLID_5_" class="st0" points="-536.114,513.03 -506.915,501.401 -506.915,501.401 			"/>
		</g>
	</g>
</g>
</svg>
